<?xml version="1.0" standalone="no"?><!DOCTYPE svg PUBLIC "-//W3C//DTD SVG 1.1//EN" "http://www.w3.org/Graphics/SVG/1.1/DTD/svg11.dtd"><svg class="icon" width="200px" height="200.00px" viewBox="0 0 1024 1024" version="1.1" xmlns="http://www.w3.org/2000/svg"><path d="M338.823529 259.764706h376.470589a7.529412 7.529412 0 0 0 0-15.058824h-376.470589a7.529412 7.529412 0 0 0 0 15.058824zM338.823529 410.352941h286.117647a7.529412 7.529412 0 0 0 0-15.058823h-286.117647a7.529412 7.529412 0 0 0 0 15.058823zM338.823529 515.764706h210.82353a7.529412 7.529412 0 0 0 0-15.058824h-210.82353a7.529412 7.529412 0 0 0 0 15.058824zM338.823529 621.176471h210.82353a7.529412 7.529412 0 0 0 0-15.058824h-210.82353a7.529412 7.529412 0 0 0 0 15.058824zM255.864471 407.883294a7.619765 7.619765 0 0 0-10.285177-2.816L135.68 467.892706a7.559529 7.559529 0 0 0-2.816 10.285176 7.574588 7.574588 0 0 0 10.285176 2.816l109.914353-62.825411a7.544471 7.544471 0 0 0 2.800942-10.285177zM257.746824 553.953882a7.529412 7.529412 0 0 0-10.270118-2.800941l-48.414118 27.678118a7.529412 7.529412 0 1 0 7.469177 13.071059l48.414117-27.678118a7.499294 7.499294 0 0 0 2.800942-10.270118zM251.181176 673.882353c-1.355294 1.355294-2.258824 3.312941-2.258823 5.406118a7.499294 7.499294 0 0 0 7.529412 7.393882c1.972706 0 3.930353-0.752941 5.285647-2.108235a7.664941 7.664941 0 0 0 0.135529-10.691765c-2.861176-2.861176-8.282353-2.56-10.691765 0zM309.744941 776.282353c-1.505882 1.355294-2.243765 3.312941-2.243765 5.270588 0 2.123294 0.752941 4.080941 2.108236 5.421177 1.520941 1.355294 3.312941 2.108235 5.421176 2.108235 1.957647 0 3.915294-0.752941 5.270588-2.243765a7.303529 7.303529 0 0 0 0-10.556235c-2.710588-2.876235-7.996235-2.876235-10.556235 0zM994.439529 371.817412L805.647059 227.222588v-51.425882c0-40.463059-39.619765-81.679059-78.516706-81.679059H331.715765c-40.794353 0-68.186353 41.908706-68.186353 81.061647v43.986824L41.938824 345.840941c-16.850824 9.637647-28.958118 25.298824-34.093177 44.122353s-2.665412 38.475294 6.972235 55.311059L279.341176 908.016941a72.402824 72.402824 0 0 0 44.122353 34.093177 72.176941 72.176941 0 0 0 55.326118-6.972236l134.068706-76.649411 71.333647 54.106353c12.754824 9.682824 28.009412 14.757647 43.821176 14.757647 3.358118 0 6.731294-0.240941 10.134589-0.692706a72.463059 72.463059 0 0 0 48.158117-28.084706l322.108236-424.673883a73.005176 73.005176 0 0 0-13.974589-102.083764zM293.647059 175.179294c0-24.048941 16.278588-50.944 38.068706-50.944h395.414588c22.166588 0 48.399059 27.934118 48.399059 51.561412V700.988235c0 26.413176-27.060706 40.658824-52.510118 40.658824h-61.500235l-0.256-0.451765-0.813177 0.451765H340.886588c-23.521882 0-47.239529-12.574118-47.239529-40.658824V175.179294z m70.189176 733.801412c-9.863529 5.616941-21.383529 7.077647-32.451764 4.065882a42.450824 42.450824 0 0 1-25.901177-19.968L40.975059 430.320941c-5.632-9.863529-7.077647-21.383529-4.065883-32.436706s10.104471-20.269176 19.968-25.901176L278.588235 245.248V700.988235c0 32.813176 25.615059 55.717647 62.298353 55.717647h292.698353l-124.641882 69.857883-0.542118 0.180706-0.180706-0.316236-1.611294 0.918589-0.225882 0.12047-142.546824 81.513412z m298.450824-28.611765a42.465882 42.465882 0 0 1-28.265412 16.459294 42.736941 42.736941 0 0 1-31.653647-8.237176l-73.637647-55.853177 135.649882-76.032h58.624c14.802824 0 29.846588-4.186353 42.089412-11.881411l-102.806588 135.54447z m322.108235-424.673882L789.097412 713.185882c0.933647-3.84 1.490824-7.875765 1.490823-12.197647V253.635765l185.584941 142.140235a42.812235 42.812235 0 0 1 8.222118 59.919059zM815.013647 427.128471a7.529412 7.529412 0 0 0-9.080471 12.001882l70.625883 53.579294a7.529412 7.529412 0 1 0 9.08047-11.986823l-70.625882-53.594353zM798.418824 583.213176c-1.355294 1.520941-2.108235 3.328-2.108236 5.285648a7.755294 7.755294 0 0 0 7.529412 7.529411 7.469176 7.469176 0 0 0 7.529412-7.529411c0-1.957647-0.752941-3.764706-2.258824-5.421177-2.710588-2.710588-7.228235-3.011765-10.691764 0.135529z" /></svg>
