<?xml version="1.0" standalone="no"?><!DOCTYPE svg PUBLIC "-//W3C//DTD SVG 1.1//EN" "http://www.w3.org/Graphics/SVG/1.1/DTD/svg11.dtd"><svg class="icon" width="200px" height="200.00px" viewBox="0 0 1024 1024" version="1.1" xmlns="http://www.w3.org/2000/svg"><path d="M524.8 748.8L320 896c-12.8 6.4 12.8 6.4 12.8 6.4h377.6c19.2 0 0-25.6 0-25.6-57.6-83.2-108.8-115.2-140.8-134.4-32-19.2-44.8 6.4-44.8 6.4zM684.8 179.2h-320s-25.6 83.2 96 166.4c0 0 51.2 32 64 115.2v6.4-6.4c6.4-83.2 64-115.2 64-115.2 121.6-83.2 96-166.4 96-166.4z"  /><path d="M659.2 396.8C793.6 294.4 812.8 153.6 812.8 89.6h32c25.6 0 44.8-19.2 44.8-44.8 0-25.6-19.2-44.8-44.8-44.8H217.6c-25.6 0-44.8 19.2-44.8 44.8 0 25.6 19.2 44.8 44.8 44.8h32c0 64 19.2 204.8 153.6 307.2 44.8 32 70.4 70.4 70.4 115.2 0 70.4-64 121.6-70.4 121.6-12.8 6.4-153.6 108.8-153.6 300.8h-32c-25.6 0-44.8 19.2-44.8 44.8 0 25.6 19.2 44.8 44.8 44.8h627.2c25.6 0 44.8-19.2 44.8-44.8 0-25.6-19.2-44.8-44.8-44.8h-32c0-192-147.2-294.4-153.6-300.8-6.4-6.4-70.4-57.6-70.4-121.6 0-44.8 19.2-83.2 70.4-115.2zM556.8 512c0 83.2 76.8 140.8 83.2 147.2 0 0 140.8 96 140.8 275.2h-512c0-179.2 140.8-275.2 140.8-275.2 6.4 0 83.2-64 83.2-147.2 0-51.2-25.6-96-83.2-134.4-115.2-96-134.4-230.4-134.4-288h505.6c0 57.6-19.2 185.6-140.8 281.6-51.2 44.8-83.2 89.6-83.2 140.8z"  /></svg>
